# xmcd
#
# Track frame offsets:
#	186
#	8190
#	19072
#	28061
#	36318
#	45581
#	54345
#	64983
#	75558
#	86806
#	97570
#
# Disc length: 1446 seconds
#
# Revision: 0
# Processed by: cddbd v1.4PL0 Copyright (c) Steve Scherf et al.
# Submitted via: dBpowerAMP V4.0
#
DISCID=7d05a40b
DTITLE=Roger Miller - Dang Me
DYEAR=1900
DGENRE=Country
TTITLE0=Dang Me
TTITLE1=Burning Bridges
TTITLE2=My Uncle Used To Love Me (But She Died)
TTITLE3=In The Summertime
TTITLE4=Chug-A-Lug
TTITLE5=You Can't Roller-Skate In A Buffalo Herd
TTITLE6=Kansas City Star
TTITLE7=Release Me
TTITLE8=Husbands And Wives
TTITLE9=When Two Worlds Collide
TTITLE10=Everything's Coming Up Roses
EXTD=
EXTT0=
EXTT1=
EXTT2=
EXTT3=
EXTT4=
EXTT5=
EXTT6=
EXTT7=
EXTT8=
EXTT9=
EXTT10=
PLAYORDER=
